<mxfile host="app.diagrams.net" modified="2023-10-18T16:55:41.799Z" agent="Mozilla/5.0 (X11; Linux x86_64; rv:109.0) Gecko/20100101 Firefox/114.0" version="22.0.4" etag="YYzJRPWNUU-egBEi7kAy" type="github">
  <diagram name="PÃ¡gina-1" id="0GwCn4JqfWL4PbZu_du7">
    <mxGraphModel>
      <root>
        <mxCell id="0" />
        <mxCell id="1" parent="0" />
      </root>
    </mxGraphModel>
  </diagram>
</mxfile>
